<svg width="1400" height="520" viewBox="0 0 1400 520" fill="none" xmlns="http://www.w3.org/2000/svg">
  <defs>
    <linearGradient id="bg" x1="0" y1="0" x2="1400" y2="520" gradientUnits="userSpaceOnUse">
      <stop stop-color="#101828"/>
      <stop offset="0.46" stop-color="#12303F"/>
      <stop offset="1" stop-color="#0F2F2D"/>
    </linearGradient>
    <linearGradient id="panel" x1="0" y1="0" x2="1" y2="1">
      <stop stop-color="#FFFFFF" stop-opacity="0.15"/>
      <stop offset="1" stop-color="#FFFFFF" stop-opacity="0.06"/>
    </linearGradient>
    <filter id="shadow" x="-20%" y="-20%" width="140%" height="140%">
      <feDropShadow dx="0" dy="18" stdDeviation="24" flood-color="#000" flood-opacity="0.28"/>
    </filter>
  </defs>
  <rect width="1400" height="520" rx="34" fill="url(#bg)"/>
  <circle cx="1220" cy="70" r="190" fill="#2DD4BF" opacity="0.10"/>
  <circle cx="180" cy="470" r="220" fill="#60A5FA" opacity="0.12"/>
  <g transform="translate(78 78)">
    <text x="0" y="54" font-family="Inter, Segoe UI, Arial" font-size="54" font-weight="800" fill="#F8FAFC">ScholarMind AgentOS</text>
    <text x="0" y="96" font-family="Inter, Segoe UI, Arial" font-size="22" fill="#CBD5E1">Local-first Academic RAG + Safe AI Agents + MCP-style Tooling</text>
    <text x="0" y="150" font-family="Inter, Segoe UI, Arial" font-size="18" fill="#E2E8F0">Build a private research knowledge base, run grounded retrieval, orchestrate local agents,</text>
    <text x="0" y="180" font-family="Inter, Segoe UI, Arial" font-size="18" fill="#E2E8F0">audit every tool call, and expose capabilities to external AI clients.</text>
    <g transform="translate(0 230)">
      <rect width="170" height="44" rx="12" fill="#2DD4BF"/>
      <text x="23" y="29" font-family="Inter, Segoe UI, Arial" font-size="16" font-weight="700" fill="#062621">Grounded RAG</text>
      <rect x="188" width="170" height="44" rx="12" fill="#60A5FA"/>
      <text x="218" y="29" font-family="Inter, Segoe UI, Arial" font-size="16" font-weight="700" fill="#071427">Safe Agents</text>
      <rect x="376" width="190" height="44" rx="12" fill="#F8FAFC" fill-opacity="0.92"/>
      <text x="407" y="29" font-family="Inter, Segoe UI, Arial" font-size="16" font-weight="700" fill="#111827">MCP Tool Bridge</text>
    </g>
  </g>
  <g filter="url(#shadow)" transform="translate(790 70)">
    <rect width="520" height="360" rx="20" fill="url(#panel)" stroke="#FFFFFF" stroke-opacity="0.18"/>
    <rect x="26" y="28" width="468" height="48" rx="12" fill="#F8FAFC" fill-opacity="0.12"/>
    <circle cx="50" cy="52" r="8" fill="#F87171"/><circle cx="75" cy="52" r="8" fill="#FBBF24"/><circle cx="100" cy="52" r="8" fill="#34D399"/>
    <text x="130" y="58" font-family="Inter, Segoe UI, Arial" font-size="15" fill="#E2E8F0">Personal Research Control Plane</text>
    <g transform="translate(34 106)">
      <rect width="135" height="92" rx="14" fill="#0F172A" fill-opacity="0.58" stroke="#2DD4BF" stroke-opacity="0.38"/>
      <text x="18" y="34" font-family="Inter, Segoe UI, Arial" font-size="14" fill="#99F6E4">Documents</text>
      <text x="18" y="68" font-family="Inter, Segoe UI, Arial" font-size="30" font-weight="800" fill="#F8FAFC">1,284</text>
      <rect x="153" width="135" height="92" rx="14" fill="#0F172A" fill-opacity="0.58" stroke="#60A5FA" stroke-opacity="0.38"/>
      <text x="171" y="34" font-family="Inter, Segoe UI, Arial" font-size="14" fill="#BFDBFE">Chunks</text>
      <text x="171" y="68" font-family="Inter, Segoe UI, Arial" font-size="30" font-weight="800" fill="#F8FAFC">18k</text>
      <rect x="306" width="135" height="92" rx="14" fill="#0F172A" fill-opacity="0.58" stroke="#FBBF24" stroke-opacity="0.38"/>
      <text x="324" y="34" font-family="Inter, Segoe UI, Arial" font-size="14" fill="#FDE68A">Agents</text>
      <text x="324" y="68" font-family="Inter, Segoe UI, Arial" font-size="30" font-weight="800" fill="#F8FAFC">4</text>
    </g>
    <g transform="translate(34 224)">
      <rect width="452" height="90" rx="16" fill="#F8FAFC" fill-opacity="0.10"/>
      <text x="20" y="30" font-family="Inter, Segoe UI, Arial" font-size="15" font-weight="700" fill="#F8FAFC">Ask: What evidence supports my thesis contribution?</text>
      <rect x="20" y="48" width="350" height="10" rx="5" fill="#2DD4BF" opacity="0.9"/>
      <rect x="20" y="68" width="255" height="10" rx="5" fill="#60A5FA" opacity="0.9"/>
    </g>
  </g>
</svg>